<svg xmlns="http://www.w3.org/2000/svg" xmlns:xlink="http://www.w3.org/1999/xlink" version="1.1" class="marks" width="998" height="404" viewBox="0 0 998 404"><rect width="998" height="404" fill="white"/><g fill="none" stroke-miterlimit="10" transform="translate(239,27)"><g class="mark-group role-frame root" role="graphics-object" aria-roledescription="group mark container"><g transform="translate(0,0)"><path class="background" aria-hidden="true" d="M0.5,0.5h520v340h-520Z" stroke="#ddd"/><g><g class="mark-group role-axis" aria-hidden="true"><g transform="translate(0.5,340.5)"><path class="background" aria-hidden="true" d="M0,0h0v0h0Z" pointer-events="none"/><g><g class="mark-rule role-axis-grid" pointer-events="none"><line transform="translate(0,-340)" x2="0" y2="340" stroke="#ddd" stroke-width="1" opacity="1"/><line transform="translate(31,-340)" x2="0" y2="340" stroke="#ddd" stroke-width="1" opacity="1"/><line transform="translate(50,-340)" x2="0" y2="340" stroke="#ddd" stroke-width="1" opacity="1"/><line transform="translate(63,-340)" x2="0" y2="340" stroke="#ddd" stroke-width="1" opacity="1"/><line transform="translate(73,-340)" x2="0" y2="340" stroke="#ddd" stroke-width="1" opacity="1"/><line transform="translate(81,-340)" x2="0" y2="340" stroke="#ddd" stroke-width="1" opacity="1"/><line transform="translate(88,-340)" x2="0" y2="340" stroke="#ddd" stroke-width="1" opacity="1"/><line transform="translate(94,-340)" x2="0" y2="340" stroke="#ddd" stroke-width="1" opacity="1"/><line transform="translate(99,-340)" x2="0" y2="340" stroke="#ddd" stroke-width="1" opacity="1"/><line transform="translate(104,-340)" x2="0" y2="340" stroke="#ddd" stroke-width="1" opacity="1"/><line transform="translate(135,-340)" x2="0" y2="340" stroke="#ddd" stroke-width="1" opacity="1"/><line transform="translate(154,-340)" x2="0" y2="340" stroke="#ddd" stroke-width="1" opacity="1"/><line transform="translate(167,-340)" x2="0" y2="340" stroke="#ddd" stroke-width="1" opacity="1"/><line transform="translate(177,-340)" x2="0" y2="340" stroke="#ddd" stroke-width="1" opacity="1"/><line transform="translate(185,-340)" x2="0" y2="340" stroke="#ddd" stroke-width="1" opacity="1"/><line transform="translate(192,-340)" x2="0" y2="340" stroke="#ddd" stroke-width="1" opacity="1"/><line transform="translate(198,-340)" x2="0" y2="340" stroke="#ddd" stroke-width="1" opacity="1"/><line transform="translate(203,-340)" x2="0" y2="340" stroke="#ddd" stroke-width="1" opacity="1"/><line transform="translate(208,-340)" x2="0" y2="340" stroke="#ddd" stroke-width="1" opacity="1"/><line transform="translate(239,-340)" x2="0" y2="340" stroke="#ddd" stroke-width="1" opacity="1"/><line transform="translate(258,-340)" x2="0" y2="340" stroke="#ddd" stroke-width="1" opacity="1"/><line transform="translate(271,-340)" x2="0" y2="340" stroke="#ddd" stroke-width="1" opacity="1"/><line transform="translate(281,-340)" x2="0" y2="340" stroke="#ddd" stroke-width="1" opacity="1"/><line transform="translate(289,-340)" x2="0" y2="340" stroke="#ddd" stroke-width="1" opacity="1"/><line transform="translate(296,-340)" x2="0" y2="340" stroke="#ddd" stroke-width="1" opacity="1"/><line transform="translate(302,-340)" x2="0" y2="340" stroke="#ddd" stroke-width="1" opacity="1"/><line transform="translate(307,-340)" x2="0" y2="340" stroke="#ddd" stroke-width="1" opacity="1"/><line transform="translate(312,-340)" x2="0" y2="340" stroke="#ddd" stroke-width="1" opacity="1"/><line transform="translate(343,-340)" x2="0" y2="340" stroke="#ddd" stroke-width="1" opacity="1"/><line transform="translate(362,-340)" x2="0" y2="340" stroke="#ddd" stroke-width="1" opacity="1"/><line transform="translate(375,-340)" x2="0" y2="340" stroke="#ddd" stroke-width="1" opacity="1"/><line transform="translate(385,-340)" x2="0" y2="340" stroke="#ddd" stroke-width="1" opacity="1"/><line transform="translate(393,-340)" x2="0" y2="340" stroke="#ddd" stroke-width="1" opacity="1"/><line transform="translate(400,-340)" x2="0" y2="340" stroke="#ddd" stroke-width="1" opacity="1"/><line transform="translate(406,-340)" x2="0" y2="340" stroke="#ddd" stroke-width="1" opacity="1"/><line transform="translate(411,-340)" x2="0" y2="340" stroke="#ddd" stroke-width="1" opacity="1"/><line transform="translate(416,-340)" x2="0" y2="340" stroke="#ddd" stroke-width="1" opacity="1"/><line transform="translate(447,-340)" x2="0" y2="340" stroke="#ddd" stroke-width="1" opacity="1"/><line transform="translate(466,-340)" x2="0" y2="340" stroke="#ddd" stroke-width="1" opacity="1"/><line transform="translate(479,-340)" x2="0" y2="340" stroke="#ddd" stroke-width="1" opacity="1"/><line transform="translate(489,-340)" x2="0" y2="340" stroke="#ddd" stroke-width="1" opacity="1"/><line transform="translate(497,-340)" x2="0" y2="340" stroke="#ddd" stroke-width="1" opacity="1"/><line transform="translate(504,-340)" x2="0" y2="340" stroke="#ddd" stroke-width="1" opacity="1"/><line transform="translate(510,-340)" x2="0" y2="340" stroke="#ddd" stroke-width="1" opacity="1"/><line transform="translate(515,-340)" x2="0" y2="340" stroke="#ddd" stroke-width="1" opacity="1"/><line transform="translate(520,-340)" x2="0" y2="340" stroke="#ddd" stroke-width="1" opacity="1"/></g></g><path class="foreground" aria-hidden="true" d="" pointer-events="none" display="none"/></g></g><g class="mark-group role-axis" aria-hidden="true"><g transform="translate(0.5,0.5)"><path class="background" aria-hidden="true" d="M0,0h0v0h0Z" pointer-events="none"/><g><g class="mark-rule role-axis-grid" pointer-events="none"><line transform="translate(0,340)" x2="520" y2="0" stroke="#ddd" stroke-width="1" opacity="1"/><line transform="translate(0,306)" x2="520" y2="0" stroke="#ddd" stroke-width="1" opacity="1"/><line transform="translate(0,286)" x2="520" y2="0" stroke="#ddd" stroke-width="1" opacity="1"/><line transform="translate(0,272)" x2="520" y2="0" stroke="#ddd" stroke-width="1" opacity="1"/><line transform="translate(0,261)" x2="520" y2="0" stroke="#ddd" stroke-width="1" opacity="1"/><line transform="translate(0,252)" x2="520" y2="0" stroke="#ddd" stroke-width="1" opacity="1"/><line transform="translate(0,244)" x2="520" y2="0" stroke="#ddd" stroke-width="1" opacity="1"/><line transform="translate(0,238)" x2="520" y2="0" stroke="#ddd" stroke-width="1" opacity="1"/><line transform="translate(0,232)" x2="520" y2="0" stroke="#ddd" stroke-width="1" opacity="1"/><line transform="translate(0,227)" x2="520" y2="0" stroke="#ddd" stroke-width="1" opacity="1"/><line transform="translate(0,193)" x2="520" y2="0" stroke="#ddd" stroke-width="1" opacity="1"/><line transform="translate(0,173)" x2="520" y2="0" stroke="#ddd" stroke-width="1" opacity="1"/><line transform="translate(0,158)" x2="520" y2="0" stroke="#ddd" stroke-width="1" opacity="1"/><line transform="translate(0,147)" x2="520" y2="0" stroke="#ddd" stroke-width="1" opacity="1"/><line transform="translate(0,138)" x2="520" y2="0" stroke="#ddd" stroke-width="1" opacity="1"/><line transform="translate(0,131)" x2="520" y2="0" stroke="#ddd" stroke-width="1" opacity="1"/><line transform="translate(0,124)" x2="520" y2="0" stroke="#ddd" stroke-width="1" opacity="1"/><line transform="translate(0,119)" x2="520" y2="0" stroke="#ddd" stroke-width="1" opacity="1"/><line transform="translate(0,113)" x2="520" y2="0" stroke="#ddd" stroke-width="1" opacity="1"/><line transform="translate(0,79)" x2="520" y2="0" stroke="#ddd" stroke-width="1" opacity="1"/><line transform="translate(0,59)" x2="520" y2="0" stroke="#ddd" stroke-width="1" opacity="1"/><line transform="translate(0,45)" x2="520" y2="0" stroke="#ddd" stroke-width="1" opacity="1"/><line transform="translate(0,34)" x2="520" y2="0" stroke="#ddd" stroke-width="1" opacity="1"/><line transform="translate(0,25)" x2="520" y2="0" stroke="#ddd" stroke-width="1" opacity="1"/><line transform="translate(0,18)" x2="520" y2="0" stroke="#ddd" stroke-width="1" opacity="1"/><line transform="translate(0,11)" x2="520" y2="0" stroke="#ddd" stroke-width="1" opacity="1"/><line transform="translate(0,5)" x2="520" y2="0" stroke="#ddd" stroke-width="1" opacity="1"/><line transform="translate(0,0)" x2="520" y2="0" stroke="#ddd" stroke-width="1" opacity="1"/></g></g><path class="foreground" aria-hidden="true" d="" pointer-events="none" display="none"/></g></g><g class="mark-group role-axis" role="graphics-symbol" aria-roledescription="axis" aria-label="X-axis titled 'rows (log)' for a log scale with values from 1 to 100,000"><g transform="translate(0.5,340.5)"><path class="background" aria-hidden="true" d="M0,0h0v0h0Z" pointer-events="none"/><g><g class="mark-rule role-axis-tick" pointer-events="none"><line transform="translate(0,0)" x2="0" y2="5" stroke="#888" stroke-width="1" opacity="1"/><line transform="translate(31,0)" x2="0" y2="5" stroke="#888" stroke-width="1" opacity="1"/><line transform="translate(50,0)" x2="0" y2="5" stroke="#888" stroke-width="1" opacity="1"/><line transform="translate(63,0)" x2="0" y2="5" stroke="#888" stroke-width="1" opacity="1"/><line transform="translate(73,0)" x2="0" y2="5" stroke="#888" stroke-width="1" opacity="1"/><line transform="translate(81,0)" x2="0" y2="5" stroke="#888" stroke-width="1" opacity="1"/><line transform="translate(88,0)" x2="0" y2="5" stroke="#888" stroke-width="1" opacity="1"/><line transform="translate(94,0)" x2="0" y2="5" stroke="#888" stroke-width="1" opacity="1"/><line transform="translate(99,0)" x2="0" y2="5" stroke="#888" stroke-width="1" opacity="1"/><line transform="translate(104,0)" x2="0" y2="5" stroke="#888" stroke-width="1" opacity="1"/><line transform="translate(135,0)" x2="0" y2="5" stroke="#888" stroke-width="1" opacity="1"/><line transform="translate(154,0)" x2="0" y2="5" stroke="#888" stroke-width="1" opacity="1"/><line transform="translate(167,0)" x2="0" y2="5" stroke="#888" stroke-width="1" opacity="1"/><line transform="translate(177,0)" x2="0" y2="5" stroke="#888" stroke-width="1" opacity="1"/><line transform="translate(185,0)" x2="0" y2="5" stroke="#888" stroke-width="1" opacity="1"/><line transform="translate(192,0)" x2="0" y2="5" stroke="#888" stroke-width="1" opacity="1"/><line transform="translate(198,0)" x2="0" y2="5" stroke="#888" stroke-width="1" opacity="1"/><line transform="translate(203,0)" x2="0" y2="5" stroke="#888" stroke-width="1" opacity="1"/><line transform="translate(208,0)" x2="0" y2="5" stroke="#888" stroke-width="1" opacity="1"/><line transform="translate(239,0)" x2="0" y2="5" stroke="#888" stroke-width="1" opacity="1"/><line transform="translate(258,0)" x2="0" y2="5" stroke="#888" stroke-width="1" opacity="1"/><line transform="translate(271,0)" x2="0" y2="5" stroke="#888" stroke-width="1" opacity="1"/><line transform="translate(281,0)" x2="0" y2="5" stroke="#888" stroke-width="1" opacity="1"/><line transform="translate(289,0)" x2="0" y2="5" stroke="#888" stroke-width="1" opacity="1"/><line transform="translate(296,0)" x2="0" y2="5" stroke="#888" stroke-width="1" opacity="1"/><line transform="translate(302,0)" x2="0" y2="5" stroke="#888" stroke-width="1" opacity="1"/><line transform="translate(307,0)" x2="0" y2="5" stroke="#888" stroke-width="1" opacity="1"/><line transform="translate(312,0)" x2="0" y2="5" stroke="#888" stroke-width="1" opacity="1"/><line transform="translate(343,0)" x2="0" y2="5" stroke="#888" stroke-width="1" opacity="1"/><line transform="translate(362,0)" x2="0" y2="5" stroke="#888" stroke-width="1" opacity="1"/><line transform="translate(375,0)" x2="0" y2="5" stroke="#888" stroke-width="1" opacity="1"/><line transform="translate(385,0)" x2="0" y2="5" stroke="#888" stroke-width="1" opacity="1"/><line transform="translate(393,0)" x2="0" y2="5" stroke="#888" stroke-width="1" opacity="1"/><line transform="translate(400,0)" x2="0" y2="5" stroke="#888" stroke-width="1" opacity="1"/><line transform="translate(406,0)" x2="0" y2="5" stroke="#888" stroke-width="1" opacity="1"/><line transform="translate(411,0)" x2="0" y2="5" stroke="#888" stroke-width="1" opacity="1"/><line transform="translate(416,0)" x2="0" y2="5" stroke="#888" stroke-width="1" opacity="1"/><line transform="translate(447,0)" x2="0" y2="5" stroke="#888" stroke-width="1" opacity="1"/><line transform="translate(466,0)" x2="0" y2="5" stroke="#888" stroke-width="1" opacity="1"/><line transform="translate(479,0)" x2="0" y2="5" stroke="#888" stroke-width="1" opacity="1"/><line transform="translate(489,0)" x2="0" y2="5" stroke="#888" stroke-width="1" opacity="1"/><line transform="translate(497,0)" x2="0" y2="5" stroke="#888" stroke-width="1" opacity="1"/><line transform="translate(504,0)" x2="0" y2="5" stroke="#888" stroke-width="1" opacity="1"/><line transform="translate(510,0)" x2="0" y2="5" stroke="#888" stroke-width="1" opacity="1"/><line transform="translate(515,0)" x2="0" y2="5" stroke="#888" stroke-width="1" opacity="1"/><line transform="translate(520,0)" x2="0" y2="5" stroke="#888" stroke-width="1" opacity="1"/></g><g class="mark-text role-axis-label" pointer-events="none"><text text-anchor="start" transform="translate(0,15)" font-family="sans-serif" font-size="10px" fill="#000" opacity="1">1</text><text text-anchor="middle" transform="translate(31.307119549054043,15)" font-family="sans-serif" font-size="10px" fill="#000" opacity="1">2</text><text text-anchor="middle" transform="translate(49.62061049084489,15)" font-family="sans-serif" font-size="10px" fill="#000" opacity="1"/><text text-anchor="middle" transform="translate(62.61423909810809,15)" font-family="sans-serif" font-size="10px" fill="#000" opacity="1"/><text text-anchor="middle" transform="translate(72.69288045094595,15)" font-family="sans-serif" font-size="10px" fill="#000" opacity="1"/><text text-anchor="middle" transform="translate(80.92773003989895,15)" font-family="sans-serif" font-size="10px" fill="#000" opacity="1"/><text text-anchor="middle" transform="translate(87.8901961614827,15)" font-family="sans-serif" font-size="10px" fill="#000" opacity="1"/><text text-anchor="middle" transform="translate(93.92135864716212,15)" font-family="sans-serif" font-size="10px" fill="#000" opacity="1"/><text text-anchor="middle" transform="translate(99.24122098168979,15)" font-family="sans-serif" font-size="10px" fill="#000" opacity="1"/><text text-anchor="middle" transform="translate(104,15)" font-family="sans-serif" font-size="10px" fill="#000" opacity="1">10</text><text text-anchor="middle" transform="translate(135.30711954905405,15)" font-family="sans-serif" font-size="10px" fill="#000" opacity="1">20</text><text text-anchor="middle" transform="translate(153.62061049084488,15)" font-family="sans-serif" font-size="10px" fill="#000" opacity="1"/><text text-anchor="middle" transform="translate(166.61423909810807,15)" font-family="sans-serif" font-size="10px" fill="#000" opacity="1"/><text text-anchor="middle" transform="translate(176.69288045094595,15)" font-family="sans-serif" font-size="10px" fill="#000" opacity="1"/><text text-anchor="middle" transform="translate(184.92773003989893,15)" font-family="sans-serif" font-size="10px" fill="#000" opacity="1"/><text text-anchor="middle" transform="translate(191.89019616148272,15)" font-family="sans-serif" font-size="10px" fill="#000" opacity="1"/><text text-anchor="middle" transform="translate(197.92135864716212,15)" font-family="sans-serif" font-size="10px" fill="#000" opacity="1"/><text text-anchor="middle" transform="translate(203.2412209816898,15)" font-family="sans-serif" font-size="10px" fill="#000" opacity="1"/><text text-anchor="middle" transform="translate(208,15)" font-family="sans-serif" font-size="10px" fill="#000" opacity="1">100</text><text text-anchor="middle" transform="translate(239.30711954905402,15)" font-family="sans-serif" font-size="10px" fill="#000" opacity="1">200</text><text text-anchor="middle" transform="translate(257.62061049084485,15)" font-family="sans-serif" font-size="10px" fill="#000" opacity="1"/><text text-anchor="middle" transform="translate(270.6142390981081,15)" font-family="sans-serif" font-size="10px" fill="#000" opacity="1"/><text text-anchor="middle" transform="translate(280.69288045094595,15)" font-family="sans-serif" font-size="10px" fill="#000" opacity="1"/><text text-anchor="middle" transform="translate(288.92773003989896,15)" font-family="sans-serif" font-size="10px" fill="#000" opacity="1"/><text text-anchor="middle" transform="translate(295.8901961614827,15)" font-family="sans-serif" font-size="10px" fill="#000" opacity="1"/><text text-anchor="middle" transform="translate(301.92135864716215,15)" font-family="sans-serif" font-size="10px" fill="#000" opacity="1"/><text text-anchor="middle" transform="translate(307.24122098168976,15)" font-family="sans-serif" font-size="10px" fill="#000" opacity="1"/><text text-anchor="middle" transform="translate(312,15)" font-family="sans-serif" font-size="10px" fill="#000" opacity="1">1,000</text><text text-anchor="middle" transform="translate(343.30711954905405,15)" font-family="sans-serif" font-size="10px" fill="#000" opacity="0">2,000</text><text text-anchor="middle" transform="translate(361.62061049084485,15)" font-family="sans-serif" font-size="10px" fill="#000" opacity="1"/><text text-anchor="middle" transform="translate(374.61423909810804,15)" font-family="sans-serif" font-size="10px" fill="#000" opacity="1"/><text text-anchor="middle" transform="translate(384.692880450946,15)" font-family="sans-serif" font-size="10px" fill="#000" opacity="1"/><text text-anchor="middle" transform="translate(392.9277300398989,15)" font-family="sans-serif" font-size="10px" fill="#000" opacity="1"/><text text-anchor="middle" transform="translate(399.89019616148266,15)" font-family="sans-serif" font-size="10px" fill="#000" opacity="1"/><text text-anchor="middle" transform="translate(405.9213586471621,15)" font-family="sans-serif" font-size="10px" fill="#000" opacity="1"/><text text-anchor="middle" transform="translate(411.2412209816898,15)" font-family="sans-serif" font-size="10px" fill="#000" opacity="1"/><text text-anchor="middle" transform="translate(416,15)" font-family="sans-serif" font-size="10px" fill="#000" opacity="1">10,000</text><text text-anchor="middle" transform="translate(447.307119549054,15)" font-family="sans-serif" font-size="10px" fill="#000" opacity="0">20,000</text><text text-anchor="middle" transform="translate(465.6206104908449,15)" font-family="sans-serif" font-size="10px" fill="#000" opacity="1"/><text text-anchor="middle" transform="translate(478.61423909810804,15)" font-family="sans-serif" font-size="10px" fill="#000" opacity="1"/><text text-anchor="middle" transform="translate(488.69288045094595,15)" font-family="sans-serif" font-size="10px" fill="#000" opacity="1"/><text text-anchor="middle" transform="translate(496.92773003989896,15)" font-family="sans-serif" font-size="10px" fill="#000" opacity="1"/><text text-anchor="middle" transform="translate(503.89019616148266,15)" font-family="sans-serif" font-size="10px" fill="#000" opacity="1"/><text text-anchor="middle" transform="translate(509.9213586471621,15)" font-family="sans-serif" font-size="10px" fill="#000" opacity="1"/><text text-anchor="middle" transform="translate(515.2412209816897,15)" font-family="sans-serif" font-size="10px" fill="#000" opacity="1"/><text text-anchor="end" transform="translate(520,15)" font-family="sans-serif" font-size="10px" fill="#000" opacity="1">100,000</text></g><g class="mark-rule role-axis-domain" pointer-events="none"><line transform="translate(0,0)" x2="520" y2="0" stroke="#888" stroke-width="1" opacity="1"/></g><g class="mark-text role-axis-title" pointer-events="none"><text text-anchor="middle" transform="translate(260,30)" font-family="sans-serif" font-size="11px" font-weight="bold" fill="#000" opacity="1">rows (log)</text></g></g><path class="foreground" aria-hidden="true" d="" pointer-events="none" display="none"/></g></g><g class="mark-group role-axis" role="graphics-symbol" aria-roledescription="axis" aria-label="Y-axis titled 'exec ms ÷ union (geomean, log)' for a log scale with values from 0.01 to 10"><g transform="translate(0.5,0.5)"><path class="background" aria-hidden="true" d="M0,0h0v0h0Z" pointer-events="none"/><g><g class="mark-rule role-axis-tick" pointer-events="none"><line transform="translate(0,340)" x2="-5" y2="0" stroke="#888" stroke-width="1" opacity="1"/><line transform="translate(0,306)" x2="-5" y2="0" stroke="#888" stroke-width="1" opacity="1"/><line transform="translate(0,286)" x2="-5" y2="0" stroke="#888" stroke-width="1" opacity="1"/><line transform="translate(0,272)" x2="-5" y2="0" stroke="#888" stroke-width="1" opacity="1"/><line transform="translate(0,261)" x2="-5" y2="0" stroke="#888" stroke-width="1" opacity="1"/><line transform="translate(0,252)" x2="-5" y2="0" stroke="#888" stroke-width="1" opacity="1"/><line transform="translate(0,244)" x2="-5" y2="0" stroke="#888" stroke-width="1" opacity="1"/><line transform="translate(0,238)" x2="-5" y2="0" stroke="#888" stroke-width="1" opacity="1"/><line transform="translate(0,232)" x2="-5" y2="0" stroke="#888" stroke-width="1" opacity="1"/><line transform="translate(0,227)" x2="-5" y2="0" stroke="#888" stroke-width="1" opacity="1"/><line transform="translate(0,193)" x2="-5" y2="0" stroke="#888" stroke-width="1" opacity="1"/><line transform="translate(0,173)" x2="-5" y2="0" stroke="#888" stroke-width="1" opacity="1"/><line transform="translate(0,158)" x2="-5" y2="0" stroke="#888" stroke-width="1" opacity="1"/><line transform="translate(0,147)" x2="-5" y2="0" stroke="#888" stroke-width="1" opacity="1"/><line transform="translate(0,138)" x2="-5" y2="0" stroke="#888" stroke-width="1" opacity="1"/><line transform="translate(0,131)" x2="-5" y2="0" stroke="#888" stroke-width="1" opacity="1"/><line transform="translate(0,124)" x2="-5" y2="0" stroke="#888" stroke-width="1" opacity="1"/><line transform="translate(0,119)" x2="-5" y2="0" stroke="#888" stroke-width="1" opacity="1"/><line transform="translate(0,113)" x2="-5" y2="0" stroke="#888" stroke-width="1" opacity="1"/><line transform="translate(0,79)" x2="-5" y2="0" stroke="#888" stroke-width="1" opacity="1"/><line transform="translate(0,59)" x2="-5" y2="0" stroke="#888" stroke-width="1" opacity="1"/><line transform="translate(0,45)" x2="-5" y2="0" stroke="#888" stroke-width="1" opacity="1"/><line transform="translate(0,34)" x2="-5" y2="0" stroke="#888" stroke-width="1" opacity="1"/><line transform="translate(0,25)" x2="-5" y2="0" stroke="#888" stroke-width="1" opacity="1"/><line transform="translate(0,18)" x2="-5" y2="0" stroke="#888" stroke-width="1" opacity="1"/><line transform="translate(0,11)" x2="-5" y2="0" stroke="#888" stroke-width="1" opacity="1"/><line transform="translate(0,5)" x2="-5" y2="0" stroke="#888" stroke-width="1" opacity="1"/><line transform="translate(0,0)" x2="-5" y2="0" stroke="#888" stroke-width="1" opacity="1"/></g><g class="mark-text role-axis-label" pointer-events="none"><text text-anchor="end" transform="translate(-7,343)" font-family="sans-serif" font-size="10px" fill="#000" opacity="1">0.01</text><text text-anchor="end" transform="translate(-7,308.88326715808216)" font-family="sans-serif" font-size="10px" fill="#000" opacity="1">0.02</text><text text-anchor="end" transform="translate(-7,288.92625779843826)" font-family="sans-serif" font-size="10px" fill="#000" opacity="1">0.03</text><text text-anchor="end" transform="translate(-7,274.76653431616427)" font-family="sans-serif" font-size="10px" fill="#000" opacity="1"/><text text-anchor="end" transform="translate(-7,263.7833995085846)" font-family="sans-serif" font-size="10px" fill="#000" opacity="1"/><text text-anchor="end" transform="translate(-7,254.8095249565204)" font-family="sans-serif" font-size="10px" fill="#000" opacity="1"/><text text-anchor="end" transform="translate(-7,247.22222213171756)" font-family="sans-serif" font-size="10px" fill="#000" opacity="1"/><text text-anchor="end" transform="translate(-7,240.6498014742464)" font-family="sans-serif" font-size="10px" fill="#000" opacity="1"/><text text-anchor="end" transform="translate(-7,234.85251559687651)" font-family="sans-serif" font-size="10px" fill="#000" opacity="1"/><text text-anchor="end" transform="translate(-7,229.66666666666669)" font-family="sans-serif" font-size="10px" fill="#000" opacity="1">0.1</text><text text-anchor="end" transform="translate(-7,195.54993382474882)" font-family="sans-serif" font-size="10px" fill="#000" opacity="1">0.2</text><text text-anchor="end" transform="translate(-7,175.59292446510494)" font-family="sans-serif" font-size="10px" fill="#000" opacity="1">0.3</text><text text-anchor="end" transform="translate(-7,161.43320098283093)" font-family="sans-serif" font-size="10px" fill="#000" opacity="1"/><text text-anchor="end" transform="translate(-7,150.4500661752512)" font-family="sans-serif" font-size="10px" fill="#000" opacity="1"/><text text-anchor="end" transform="translate(-7,141.47619162318705)" font-family="sans-serif" font-size="10px" fill="#000" opacity="1"/><text text-anchor="end" transform="translate(-7,133.88888879838424)" font-family="sans-serif" font-size="10px" fill="#000" opacity="1"/><text text-anchor="end" transform="translate(-7,127.31646814091306)" font-family="sans-serif" font-size="10px" fill="#000" opacity="1"/><text text-anchor="end" transform="translate(-7,121.51918226354319)" font-family="sans-serif" font-size="10px" fill="#000" opacity="1"/><text text-anchor="end" transform="translate(-7,116.33333333333334)" font-family="sans-serif" font-size="10px" fill="#000" opacity="1">1</text><text text-anchor="end" transform="translate(-7,82.21660049141548)" font-family="sans-serif" font-size="10px" fill="#000" opacity="1">2</text><text text-anchor="end" transform="translate(-7,62.25959113177157)" font-family="sans-serif" font-size="10px" fill="#000" opacity="1">3</text><text text-anchor="end" transform="translate(-7,48.09986764949758)" font-family="sans-serif" font-size="10px" fill="#000" opacity="1"/><text text-anchor="end" transform="translate(-7,37.116732841917866)" font-family="sans-serif" font-size="10px" fill="#000" opacity="1"/><text text-anchor="end" transform="translate(-7,28.14285828985371)" font-family="sans-serif" font-size="10px" fill="#000" opacity="1"/><text text-anchor="end" transform="translate(-7,20.555555465050908)" font-family="sans-serif" font-size="10px" fill="#000" opacity="1"/><text text-anchor="end" transform="translate(-7,13.983134807579757)" font-family="sans-serif" font-size="10px" fill="#000" opacity="1"/><text text-anchor="end" transform="translate(-7,8.185848930209874)" font-family="sans-serif" font-size="10px" fill="#000" opacity="1"/><text text-anchor="end" transform="translate(-7,3)" font-family="sans-serif" font-size="10px" fill="#000" opacity="1">10</text></g><g class="mark-rule role-axis-domain" pointer-events="none"><line transform="translate(0,340)" x2="0" y2="-340" stroke="#888" stroke-width="1" opacity="1"/></g><g class="mark-text role-axis-title" pointer-events="none"><text text-anchor="middle" transform="translate(-43,170) rotate(-90) translate(0,-2)" font-family="sans-serif" font-size="11px" font-weight="bold" fill="#000" opacity="1">exec ms ÷ union (geomean, log)</text></g></g><path class="foreground" aria-hidden="true" d="" pointer-events="none" display="none"/></g></g><g class="mark-group role-scope layer_0_layer_0_pathgroup" role="graphics-object" aria-roledescription="group mark container"><g transform="translate(0,0)"><path class="background" aria-hidden="true" d="M0,0h520v340h-520Z"/><g><g class="mark-area role-mark layer_0_layer_0_marks" role="graphics-object" aria-roledescription="area mark container"><path aria-label="rows (log): 3; exec ms ÷ union (geomean, log): 1; upper_lo: 1; mode: union; hi: 1; lo: 1" role="graphics-symbol" aria-roledescription="errorband" d="M49.621,113.333L72.693,113.333L104,113.333L135.307,113.333L176.693,113.333L197.921,113.333L208,113.333L312,113.333L416,113.333L488.693,113.333L488.693,113.333L416,113.333L312,113.333L208,113.333L197.921,113.333L176.693,113.333L135.307,113.333L104,113.333L72.693,113.333L49.621,113.333Z" fill="#4c78a8" opacity="0.15"/></g></g><path class="foreground" aria-hidden="true" d="" display="none"/></g><g transform="translate(0,0)"><path class="background" aria-hidden="true" d="M0,0h520v340h-520Z"/><g><g class="mark-area role-mark layer_0_layer_0_marks" role="graphics-object" aria-roledescription="area mark container"><path aria-label="rows (log): 3; exec ms ÷ union (geomean, log): 0.555222400374; upper_lo: 0.833578203571; mode: case; hi: 0.833578203571; lo: 0.555222400374" role="graphics-symbol" aria-roledescription="errorband" d="M49.621,142.294L72.693,132.395L104,139.639L135.307,135.62L176.693,126.712L197.921,132.509L208,142.103L312,156.804L416,149.653L488.693,171.687L488.693,20.386L416,33.05L312,41.673L208,92.362L197.921,108.195L176.693,101.163L135.307,106.901L104,76.41L72.693,111.021L49.621,122.293Z" fill="#f58518" opacity="0.15"/></g></g><path class="foreground" aria-hidden="true" d="" display="none"/></g><g transform="translate(0,0)"><path class="background" aria-hidden="true" d="M0,0h520v340h-520Z"/><g><g class="mark-area role-mark layer_0_layer_0_marks" role="graphics-object" aria-roledescription="area mark container"><path aria-label="rows (log): 3; exec ms ÷ union (geomean, log): 0.554787647421; upper_lo: 0.931092730237; mode: json; hi: 0.931092730237; lo: 0.554787647421" role="graphics-symbol" aria-roledescription="errorband" d="M49.621,142.332L72.693,123.754L104,123.446L135.307,167.639L176.693,146.139L197.921,165.183L208,172.002L312,235.107L416,195.225L488.693,168.364L488.693,117.85L416,122.756L312,127.849L208,113.848L197.921,122.462L176.693,115.06L135.307,112.214L104,111.595L72.693,113.36L49.621,116.847Z" fill="#e45756" opacity="0.15"/></g></g><path class="foreground" aria-hidden="true" d="" display="none"/></g></g><g class="mark-group role-scope layer_1_layer_0_pathgroup" role="graphics-object" aria-roledescription="group mark container"><g transform="translate(0,0)"><path class="background" aria-hidden="true" d="M0,0h520v340h-520Z"/><g><g class="mark-line role-mark layer_1_layer_0_marks" role="graphics-object" aria-roledescription="line mark container"><path aria-label="rows (log): 3; ratio: 1; mode: union" role="graphics-symbol" aria-roledescription="line mark" d="M49.621,113.333L72.693,113.333L104,113.333L135.307,113.333L176.693,113.333L197.921,113.333L208,113.333L312,113.333L416,113.333L488.693,113.333" stroke="#4c78a8" stroke-width="2"/></g></g><path class="foreground" aria-hidden="true" d="" display="none"/></g><g transform="translate(0,0)"><path class="background" aria-hidden="true" d="M0,0h520v340h-520Z"/><g><g class="mark-line role-mark layer_1_layer_0_marks" role="graphics-object" aria-roledescription="line mark container"><path aria-label="rows (log): 3; ratio: 0.680309702331; mode: case" role="graphics-symbol" aria-roledescription="line mark" d="M49.621,132.293L72.693,121.708L104,108.025L135.307,121.26L176.693,113.937L197.921,120.352L208,117.232L312,99.238L416,91.352L488.693,96.036" stroke="#f58518" stroke-width="2"/></g></g><path class="foreground" aria-hidden="true" d="" display="none"/></g><g transform="translate(0,0)"><path class="background" aria-hidden="true" d="M0,0h520v340h-520Z"/><g><g class="mark-line role-mark layer_1_layer_0_marks" role="graphics-object" aria-roledescription="line mark container"><path aria-label="rows (log): 3; ratio: 0.718720213532; mode: json" role="graphics-symbol" aria-roledescription="line mark" d="M49.621,129.59L72.693,118.557L104,117.521L135.307,139.926L176.693,130.6L197.921,143.823L208,142.925L312,181.478L416,158.991L488.693,143.107" stroke="#e45756" stroke-width="2"/></g></g><path class="foreground" aria-hidden="true" d="" display="none"/></g></g><g class="mark-symbol role-mark layer_1_layer_1_marks" role="graphics-object" aria-roledescription="symbol mark container"><path aria-label="rows (log): 3; ratio: 1; mode: union" role="graphics-symbol" aria-roledescription="point" transform="translate(49.62061049084489,113.33333333333334)" d="M4.183,0A4.183,4.183,0,1,1,-4.183,0A4.183,4.183,0,1,1,4.183,0" fill="#4c78a8" stroke-width="2" opacity="1"/><path aria-label="rows (log): 5; ratio: 1; mode: union" role="graphics-symbol" aria-roledescription="point" transform="translate(72.69288045094595,113.33333333333334)" d="M4.183,0A4.183,4.183,0,1,1,-4.183,0A4.183,4.183,0,1,1,4.183,0" fill="#4c78a8" stroke-width="2" opacity="1"/><path aria-label="rows (log): 10; ratio: 1; mode: union" role="graphics-symbol" aria-roledescription="point" transform="translate(104,113.33333333333334)" d="M4.183,0A4.183,4.183,0,1,1,-4.183,0A4.183,4.183,0,1,1,4.183,0" fill="#4c78a8" stroke-width="2" opacity="1"/><path aria-label="rows (log): 20; ratio: 1; mode: union" role="graphics-symbol" aria-roledescription="point" transform="translate(135.30711954905405,113.33333333333334)" d="M4.183,0A4.183,4.183,0,1,1,-4.183,0A4.183,4.183,0,1,1,4.183,0" fill="#4c78a8" stroke-width="2" opacity="1"/><path aria-label="rows (log): 50; ratio: 1; mode: union" role="graphics-symbol" aria-roledescription="point" transform="translate(176.69288045094595,113.33333333333334)" d="M4.183,0A4.183,4.183,0,1,1,-4.183,0A4.183,4.183,0,1,1,4.183,0" fill="#4c78a8" stroke-width="2" opacity="1"/><path aria-label="rows (log): 80; ratio: 1; mode: union" role="graphics-symbol" aria-roledescription="point" transform="translate(197.92135864716212,113.33333333333334)" d="M4.183,0A4.183,4.183,0,1,1,-4.183,0A4.183,4.183,0,1,1,4.183,0" fill="#4c78a8" stroke-width="2" opacity="1"/><path aria-label="rows (log): 100; ratio: 1; mode: union" role="graphics-symbol" aria-roledescription="point" transform="translate(208,113.33333333333334)" d="M4.183,0A4.183,4.183,0,1,1,-4.183,0A4.183,4.183,0,1,1,4.183,0" fill="#4c78a8" stroke-width="2" opacity="1"/><path aria-label="rows (log): 1000; ratio: 1; mode: union" role="graphics-symbol" aria-roledescription="point" transform="translate(312,113.33333333333334)" d="M4.183,0A4.183,4.183,0,1,1,-4.183,0A4.183,4.183,0,1,1,4.183,0" fill="#4c78a8" stroke-width="2" opacity="1"/><path aria-label="rows (log): 10000; ratio: 1; mode: union" role="graphics-symbol" aria-roledescription="point" transform="translate(416,113.33333333333334)" d="M4.183,0A4.183,4.183,0,1,1,-4.183,0A4.183,4.183,0,1,1,4.183,0" fill="#4c78a8" stroke-width="2" opacity="1"/><path aria-label="rows (log): 50000; ratio: 1; mode: union" role="graphics-symbol" aria-roledescription="point" transform="translate(488.69288045094595,113.33333333333334)" d="M4.183,0A4.183,4.183,0,1,1,-4.183,0A4.183,4.183,0,1,1,4.183,0" fill="#4c78a8" stroke-width="2" opacity="1"/><path aria-label="rows (log): 3; ratio: 0.680309702331; mode: case" role="graphics-symbol" aria-roledescription="point" transform="translate(49.62061049084489,132.29324466103947)" d="M4.183,0A4.183,4.183,0,1,1,-4.183,0A4.183,4.183,0,1,1,4.183,0" fill="#f58518" stroke-width="2" opacity="1"/><path aria-label="rows (log): 5; ratio: 0.843539994772; mode: case" role="graphics-symbol" aria-roledescription="point" transform="translate(72.69288045094595,121.70802308942271)" d="M4.183,0A4.183,4.183,0,1,1,-4.183,0A4.183,4.183,0,1,1,4.183,0" fill="#f58518" stroke-width="2" opacity="1"/><path aria-label="rows (log): 10; ratio: 1.11388816937; mode: case" role="graphics-symbol" aria-roledescription="point" transform="translate(104,108.02461965067363)" d="M4.183,0A4.183,4.183,0,1,1,-4.183,0A4.183,4.183,0,1,1,4.183,0" fill="#f58518" stroke-width="2" opacity="1"/><path aria-label="rows (log): 20; ratio: 0.851250470144; mode: case" role="graphics-symbol" aria-roledescription="point" transform="translate(135.30711954905405,121.26016532483419)" d="M4.183,0A4.183,4.183,0,1,1,-4.183,0A4.183,4.183,0,1,1,4.183,0" fill="#f58518" stroke-width="2" opacity="1"/><path aria-label="rows (log): 50; ratio: 0.987807360379; mode: case" role="graphics-symbol" aria-roledescription="point" transform="translate(176.69288045094595,113.93714410858907)" d="M4.183,0A4.183,4.183,0,1,1,-4.183,0A4.183,4.183,0,1,1,4.183,0" fill="#f58518" stroke-width="2" opacity="1"/><path aria-label="rows (log): 80; ratio: 0.867102802186; mode: case" role="graphics-symbol" aria-roledescription="point" transform="translate(197.92135864716212,120.35199983172741)" d="M4.183,0A4.183,4.183,0,1,1,-4.183,0A4.183,4.183,0,1,1,4.183,0" fill="#f58518" stroke-width="2" opacity="1"/><path aria-label="rows (log): 100; ratio: 0.923839361516; mode: case" role="graphics-symbol" aria-roledescription="point" transform="translate(208,117.23240096755107)" d="M4.183,0A4.183,4.183,0,1,1,-4.183,0A4.183,4.183,0,1,1,4.183,0" fill="#f58518" stroke-width="2" opacity="1"/><path aria-label="rows (log): 1000; ratio: 1.33158508656; mode: case" role="graphics-symbol" aria-roledescription="point" transform="translate(312,99.23818878138071)" d="M4.183,0A4.183,4.183,0,1,1,-4.183,0A4.183,4.183,0,1,1,4.183,0" fill="#f58518" stroke-width="2" opacity="1"/><path aria-label="rows (log): 10000; ratio: 1.56298647291; mode: case" role="graphics-symbol" aria-roledescription="point" transform="translate(416,91.3517418044235)" d="M4.183,0A4.183,4.183,0,1,1,-4.183,0A4.183,4.183,0,1,1,4.183,0" fill="#f58518" stroke-width="2" opacity="1"/><path aria-label="rows (log): 50000; ratio: 1.42108550385; mode: case" role="graphics-symbol" aria-roledescription="point" transform="translate(488.69288045094595,96.03637627511705)" d="M4.183,0A4.183,4.183,0,1,1,-4.183,0A4.183,4.183,0,1,1,4.183,0" fill="#f58518" stroke-width="2" opacity="1"/><path aria-label="rows (log): 3; ratio: 0.718720213532; mode: json" role="graphics-symbol" aria-roledescription="point" transform="translate(49.62061049084489,129.58988261558878)" d="M4.183,0A4.183,4.183,0,1,1,-4.183,0A4.183,4.183,0,1,1,4.183,0" fill="#e45756" stroke-width="2" opacity="1"/><path aria-label="rows (log): 5; ratio: 0.899307113843; mode: json" role="graphics-symbol" aria-roledescription="point" transform="translate(72.69288045094595,118.55709006337253)" d="M4.183,0A4.183,4.183,0,1,1,-4.183,0A4.183,4.183,0,1,1,4.183,0" fill="#e45756" stroke-width="2" opacity="1"/><path aria-label="rows (log): 10; ratio: 0.918445108671; mode: json" role="graphics-symbol" aria-roledescription="point" transform="translate(104,117.52063669964681)" d="M4.183,0A4.183,4.183,0,1,1,-4.183,0A4.183,4.183,0,1,1,4.183,0" fill="#e45756" stroke-width="2" opacity="1"/><path aria-label="rows (log): 20; ratio: 0.582579536281; mode: json" role="graphics-symbol" aria-roledescription="point" transform="translate(135.30711954905405,139.92640777560428)" d="M4.183,0A4.183,4.183,0,1,1,-4.183,0A4.183,4.183,0,1,1,4.183,0" fill="#e45756" stroke-width="2" opacity="1"/><path aria-label="rows (log): 50; ratio: 0.704125530521; mode: json" role="graphics-symbol" aria-roledescription="point" transform="translate(176.69288045094595,130.59965630103338)" d="M4.183,0A4.183,4.183,0,1,1,-4.183,0A4.183,4.183,0,1,1,4.183,0" fill="#e45756" stroke-width="2" opacity="1"/><path aria-label="rows (log): 80; ratio: 0.538241534073; mode: json" role="graphics-symbol" aria-roledescription="point" transform="translate(197.92135864716212,143.82258313969882)" d="M4.183,0A4.183,4.183,0,1,1,-4.183,0A4.183,4.183,0,1,1,4.183,0" fill="#e45756" stroke-width="2" opacity="1"/><path aria-label="rows (log): 100; ratio: 0.548145534624; mode: json" role="graphics-symbol" aria-roledescription="point" transform="translate(208,142.92513353749865)" d="M4.183,0A4.183,4.183,0,1,1,-4.183,0A4.183,4.183,0,1,1,4.183,0" fill="#e45756" stroke-width="2" opacity="1"/><path aria-label="rows (log): 1000; ratio: 0.25045140512; mode: json" role="graphics-symbol" aria-roledescription="point" transform="translate(312,181.47800644134048)" d="M4.183,0A4.183,4.183,0,1,1,-4.183,0A4.183,4.183,0,1,1,4.183,0" fill="#e45756" stroke-width="2" opacity="1"/><path aria-label="rows (log): 10000; ratio: 0.395494517895; mode: json" role="graphics-symbol" aria-roledescription="point" transform="translate(416,158.99074696574877)" d="M4.183,0A4.183,4.183,0,1,1,-4.183,0A4.183,4.183,0,1,1,4.183,0" fill="#e45756" stroke-width="2" opacity="1"/><path aria-label="rows (log): 50000; ratio: 0.54612591095; mode: json" role="graphics-symbol" aria-roledescription="point" transform="translate(488.69288045094595,143.10681802516078)" d="M4.183,0A4.183,4.183,0,1,1,-4.183,0A4.183,4.183,0,1,1,4.183,0" fill="#e45756" stroke-width="2" opacity="1"/></g><g class="mark-rule role-mark layer_2_marks" role="graphics-symbol" aria-roledescription="rule mark container"><line transform="translate(520,113.33333333333334)" x2="-520" y2="0" stroke="#888" stroke-dasharray="4,4"/><line transform="translate(520,113.33333333333334)" x2="-520" y2="0" stroke="#888" stroke-dasharray="4,4"/><line transform="translate(520,113.33333333333334)" x2="-520" y2="0" stroke="#888" stroke-dasharray="4,4"/><line transform="translate(520,113.33333333333334)" x2="-520" y2="0" stroke="#888" stroke-dasharray="4,4"/><line transform="translate(520,113.33333333333334)" x2="-520" y2="0" stroke="#888" stroke-dasharray="4,4"/><line transform="translate(520,113.33333333333334)" x2="-520" y2="0" stroke="#888" stroke-dasharray="4,4"/><line transform="translate(520,113.33333333333334)" x2="-520" y2="0" stroke="#888" stroke-dasharray="4,4"/><line transform="translate(520,113.33333333333334)" x2="-520" y2="0" stroke="#888" stroke-dasharray="4,4"/><line transform="translate(520,113.33333333333334)" x2="-520" y2="0" stroke="#888" stroke-dasharray="4,4"/><line transform="translate(520,113.33333333333334)" x2="-520" y2="0" stroke="#888" stroke-dasharray="4,4"/><line transform="translate(520,113.33333333333334)" x2="-520" y2="0" stroke="#888" stroke-dasharray="4,4"/><line transform="translate(520,113.33333333333334)" x2="-520" y2="0" stroke="#888" stroke-dasharray="4,4"/><line transform="translate(520,113.33333333333334)" x2="-520" y2="0" stroke="#888" stroke-dasharray="4,4"/><line transform="translate(520,113.33333333333334)" x2="-520" y2="0" stroke="#888" stroke-dasharray="4,4"/><line transform="translate(520,113.33333333333334)" x2="-520" y2="0" stroke="#888" stroke-dasharray="4,4"/><line transform="translate(520,113.33333333333334)" x2="-520" y2="0" stroke="#888" stroke-dasharray="4,4"/><line transform="translate(520,113.33333333333334)" x2="-520" y2="0" stroke="#888" stroke-dasharray="4,4"/><line transform="translate(520,113.33333333333334)" x2="-520" y2="0" stroke="#888" stroke-dasharray="4,4"/><line transform="translate(520,113.33333333333334)" x2="-520" y2="0" stroke="#888" stroke-dasharray="4,4"/><line transform="translate(520,113.33333333333334)" x2="-520" y2="0" stroke="#888" stroke-dasharray="4,4"/><line transform="translate(520,113.33333333333334)" x2="-520" y2="0" stroke="#888" stroke-dasharray="4,4"/><line transform="translate(520,113.33333333333334)" x2="-520" y2="0" stroke="#888" stroke-dasharray="4,4"/><line transform="translate(520,113.33333333333334)" x2="-520" y2="0" stroke="#888" stroke-dasharray="4,4"/><line transform="translate(520,113.33333333333334)" x2="-520" y2="0" stroke="#888" stroke-dasharray="4,4"/><line transform="translate(520,113.33333333333334)" x2="-520" y2="0" stroke="#888" stroke-dasharray="4,4"/><line transform="translate(520,113.33333333333334)" x2="-520" y2="0" stroke="#888" stroke-dasharray="4,4"/><line transform="translate(520,113.33333333333334)" x2="-520" y2="0" stroke="#888" stroke-dasharray="4,4"/><line transform="translate(520,113.33333333333334)" x2="-520" y2="0" stroke="#888" stroke-dasharray="4,4"/><line transform="translate(520,113.33333333333334)" x2="-520" y2="0" stroke="#888" stroke-dasharray="4,4"/><line transform="translate(520,113.33333333333334)" x2="-520" y2="0" stroke="#888" stroke-dasharray="4,4"/></g><g class="mark-group role-legend" role="graphics-symbol" aria-roledescription="legend" aria-label="Symbol legend titled 'mode' for fill color and stroke color with 3 values: union, case, json"><g transform="translate(538,0)"><path class="background" aria-hidden="true" d="M0,0h56v61h-56Z" pointer-events="none"/><g><g class="mark-group role-legend-entry"><g transform="translate(0,16)"><path class="background" aria-hidden="true" d="M0,0h0v0h0Z" pointer-events="none"/><g><g class="mark-group role-scope" role="graphics-object" aria-roledescription="group mark container"><g transform="translate(0,0)"><path class="background" aria-hidden="true" d="M0,0h56v12.5h-56Z" pointer-events="none" opacity="1"/><g><g class="mark-symbol role-legend-symbol" pointer-events="none"><path transform="translate(6,6)" d="M5,0A5,5,0,1,1,-5,0A5,5,0,1,1,5,0" fill="#4c78a8" stroke="#4c78a8" stroke-width="1.5" opacity="0.15"/></g><g class="mark-text role-legend-label" pointer-events="none"><text text-anchor="start" transform="translate(16,9)" font-family="sans-serif" font-size="10px" fill="#000" opacity="1">union</text></g></g><path class="foreground" aria-hidden="true" d="" pointer-events="none" display="none"/></g><g transform="translate(0,16)"><path class="background" aria-hidden="true" d="M0,0h56v12.5h-56Z" pointer-events="none" opacity="1"/><g><g class="mark-symbol role-legend-symbol" pointer-events="none"><path transform="translate(6,6)" d="M5,0A5,5,0,1,1,-5,0A5,5,0,1,1,5,0" fill="#f58518" stroke="#f58518" stroke-width="1.5" opacity="0.15"/></g><g class="mark-text role-legend-label" pointer-events="none"><text text-anchor="start" transform="translate(16,9)" font-family="sans-serif" font-size="10px" fill="#000" opacity="1">case</text></g></g><path class="foreground" aria-hidden="true" d="" pointer-events="none" display="none"/></g><g transform="translate(0,32)"><path class="background" aria-hidden="true" d="M0,0h56v12.5h-56Z" pointer-events="none" opacity="1"/><g><g class="mark-symbol role-legend-symbol" pointer-events="none"><path transform="translate(6,6)" d="M5,0A5,5,0,1,1,-5,0A5,5,0,1,1,5,0" fill="#e45756" stroke="#e45756" stroke-width="1.5" opacity="0.15"/></g><g class="mark-text role-legend-label" pointer-events="none"><text text-anchor="start" transform="translate(16,9)" font-family="sans-serif" font-size="10px" fill="#000" opacity="1">json</text></g></g><path class="foreground" aria-hidden="true" d="" pointer-events="none" display="none"/></g></g></g><path class="foreground" aria-hidden="true" d="" pointer-events="none" display="none"/></g></g><g class="mark-text role-legend-title" pointer-events="none"><text text-anchor="start" transform="translate(0,9)" font-family="sans-serif" font-size="11px" font-weight="bold" fill="#000" opacity="1">mode</text></g></g><path class="foreground" aria-hidden="true" d="" pointer-events="none" display="none"/></g></g><g class="mark-group role-title"><g transform="translate(260,-22)"><path class="background" aria-hidden="true" d="M0,0h0v0h0Z" pointer-events="none"/><g><g class="mark-text role-title-text" role="graphics-symbol" aria-roledescription="title" aria-label="Title text 'batchUpdate exec time vs union baseline — geomean across dialects (1.0 = union, lower = faster)'" pointer-events="none"><text text-anchor="middle" transform="translate(0,10)" font-family="sans-serif" font-size="13px" font-weight="bold" fill="#000" opacity="1">batchUpdate exec time vs union baseline — geomean across dialects (1.0 = union, lower = faster)</text></g></g><path class="foreground" aria-hidden="true" d="" pointer-events="none" display="none"/></g></g></g><path class="foreground" aria-hidden="true" d="" display="none"/></g></g></g></svg>